# xmcd
#
# Track frame offsets:
#	183
#	13543
#	25825
#	36093
#	49145
#	62235
#	75265
#	88000
#	101988
#	114958
#	124835
#	136943
#	152915
#	166720
#	181778
#	192385
#	205613
#	218490
#	230613
#	241960
#	253500
#	264313
#	276948
#	289138
#	298893
#	308785
#	319613
#	330525
#
# Disc length: 4609 seconds
#
# Revision: 1
# Processed by: cddbd v1.4PL0 Copyright (c) Steve Scherf et al.
# Submitted via: audiograbber 1.81.02
#
DISCID=8611ff1c
DTITLE=Howlin' Wolf - Smokestack Lightening
DYEAR=1990
DGENRE=Blues
TTITLE0=Moanin' at Midnight
TTITLE1=How Many More Years
TTITLE2=All Night Boogie (All Night Long)
TTITLE3=No Place to Go
TTITLE4=Baby How Long
TTITLE5=Evil (Is Going On)
TTITLE6=Forty-Four
TTITLE7=Smokestack Lightning
TTITLE8=I Asked for Water (She Gave Me Gasoline)
TTITLE9=The Natchez Burning
TTITLE10=Goin' Back Home
TTITLE11=Bluebird
TTITLE12=My Life
TTITLE13=You Ought to Know
TTITLE14=Who's Been Talking?
TTITLE15=Nature
TTITLE16=Walk to Camp Hall
TTITLE17=My Baby Told Me
TTITLE18=Sittin' On Top Of The World
TTITLE19=Howlin' For My Baby
TTITLE20=Wang-Dong-Doodle
TTITLE21=Back Door Man
TTITLE22=Spoonful
TTITLE23=Down In The Bottom
TTITLE24=Shake For Me
TTITLE25=The Red Rooster
TTITLE26=You'll Be Mine
TTITLE27=Goin' Down Slow
EXTD=
EXTT0=
EXTT1=
EXTT2=
EXTT3=
EXTT4=
EXTT5=
EXTT6=
EXTT7=
EXTT8=
EXTT9=
EXTT10=
EXTT11=
EXTT12=
EXTT13=
EXTT14=
EXTT15=
EXTT16=
EXTT17=
EXTT18=
EXTT19=
EXTT20=
EXTT21=
EXTT22=
EXTT23=
EXTT24=
EXTT25=
EXTT26=
EXTT27=
PLAYORDER=
